<svg width="80" height="80" viewBox="0 0 80 80" fill="none" xmlns="http://www.w3.org/2000/svg">
<g id="Password">
<g id="Group 2608936">
<path id="Rectangle 3978" d="M55.5 46V24C55.5 15.1634 48.3366 8 39.5 8C30.6634 8 23.5 15.1634 23.5 24V46" stroke="#C38F4A" stroke-width="8"/>
<rect id="Rectangle 3975" x="24" y="31" width="48" height="40" rx="6" fill="#0F2416"/>
<rect id="Rectangle 3976" x="8" y="31" width="52" height="40" rx="6" fill="#F7D791"/>
<g id="Union">
<path d="M34 41C37.3137 41 40 43.6863 40 47C40 49.5155 38.4513 51.6679 36.2559 52.5596L36.7012 57.0146C36.861 58.6129 35.6062 60 34 60C32.3938 60 31.139 58.6129 31.2988 57.0146L31.7432 52.5596C29.5482 51.6677 28 49.5152 28 47C28 43.6863 30.6863 41 34 41Z" fill="white"/>
<path d="M36.2559 52.5596L35.8795 51.6331C35.4686 51.8 35.2167 52.2177 35.2608 52.659L36.2559 52.5596ZM36.7012 57.0146L35.7061 57.1141L35.7061 57.1142L36.7012 57.0146ZM31.2988 57.0146L32.2939 57.1142L32.2939 57.1139L31.2988 57.0146ZM31.7432 52.5596L32.7382 52.6588C32.7822 52.2176 32.5304 51.8001 32.1196 51.6331L31.7432 52.5596ZM34 41V42C36.7614 42 39 44.2386 39 47H40H41C41 43.134 37.866 40 34 40V41ZM40 47H39C39 49.0942 37.7114 50.889 35.8795 51.6331L36.2559 52.5596L36.6322 53.4861C39.1912 52.4467 41 49.9369 41 47H40ZM36.2559 52.5596L35.2608 52.659L35.7061 57.1141L36.7012 57.0146L37.6962 56.9152L37.2509 52.4601L36.2559 52.5596ZM36.7012 57.0146L35.7061 57.1142C35.8071 58.124 35.0143 59 34 59V60V61C36.1981 61 37.9149 59.1018 37.6962 56.9151L36.7012 57.0146ZM34 60V59C32.9857 59 32.1929 58.124 32.2939 57.1142L31.2988 57.0146L30.3038 56.9151C30.0851 59.1018 31.8019 61 34 61V60ZM31.2988 57.0146L32.2939 57.1139L32.7382 52.6588L31.7432 52.5596L30.7481 52.4603L30.3038 56.9154L31.2988 57.0146ZM31.7432 52.5596L32.1196 51.6331C30.2882 50.889 29 49.094 29 47H28H27C27 49.9364 28.8081 52.4464 31.3667 53.486L31.7432 52.5596ZM28 47H29C29 44.2386 31.2386 42 34 42V41V40C30.134 40 27 43.134 27 47H28Z" fill="#0F2416"/>
</g>
</g>
</g>
</svg>
