<svg width="80" height="80" viewBox="0 0 80 80" fill="none" xmlns="http://www.w3.org/2000/svg">
<g id="Password">
<g id="mail_sent">
<path id="Path" d="M75.5 32.2374L41 14.2383L5.5 32.2374L5.5 67.1776C5.5 69.9605 7.75382 72.2374 10.508 72.2374H70.4922C73.2466 72.2374 75.5 69.9608 75.5 67.1776V32.2374Z" fill="#C38F4A"/>
<path id="Path Copy" d="M37.6924 55.4508C39.3689 56.6597 41.6309 56.6597 43.3073 55.4508L75.5 32.2373C52.1667 32.2373 28.8333 32.2397 5.5 32.2373L37.6924 55.4508Z" fill="#0B1828"/>
<path id="Path Copy_2" d="M37.6924 9.02377C39.3689 7.81492 41.6309 7.81492 43.3073 9.02377L75.5 32.2373C52.1667 32.2373 28.8333 32.2349 5.5 32.2373L37.6924 9.02377Z" fill="#0B1828"/>
<g id="Container">
<rect id="Icon Background" x="13" y="20.2363" width="56" height="32" rx="4" fill="#0B1828"/>
<rect id="Icon Background_2" x="13" y="17.2363" width="56" height="32" rx="4" fill="#F7D791"/>
<path id="Vector" d="M24.9998 27.2363V39.2363M30.1957 30.2363L19.8037 36.2363M19.8037 30.2363L30.1957 36.2363" stroke="white" stroke-width="2" stroke-linecap="round" stroke-linejoin="round"/>
<path id="Vector_2" d="M40.9998 27.2363V39.2363M46.1957 30.2363L35.8037 36.2363M35.8037 30.2363L46.1957 36.2363" stroke="white" stroke-width="2" stroke-linecap="round" stroke-linejoin="round"/>
<path id="Vector_3" d="M56.9998 27.2363V39.2363M62.1957 30.2363L51.8037 36.2363M51.8037 30.2363L62.1957 36.2363" stroke="white" stroke-width="2" stroke-linecap="round" stroke-linejoin="round"/>
</g>
<path id="Subtract" d="M75.5 67.1777C75.5 69.9608 73.2466 72.2373 70.4922 72.2373H10.5078C7.75373 72.2372 5.50005 69.9605 5.5 67.1777L5.5 32.2373L37.6924 55.4512C39.3688 56.6599 41.6312 56.66 43.3076 55.4512L75.5 32.2373V67.1777Z" fill="#C38F4A"/>
<path id="Path Copy_3" d="M37.6924 43.0208C39.3689 41.812 41.6309 41.812 43.3073 43.0208L75.5 66.2344C52.1667 66.2344 28.8333 66.2319 5.5 66.2344L37.6924 43.0208Z" fill="#C38F4A"/>
<path id="Path Copy_4" d="M72.5 63.2349L43.2391 42.9005C41.5923 41.7561 39.4075 41.7561 37.7607 42.9005L8.5 63.2349" stroke="black" stroke-width="2" stroke-linecap="round"/>
</g>
</g>
</svg>
